<?xml version="1.0" encoding="UTF-8"?>
<svg version="1.1" xmlns="http://www.w3.org/2000/svg" width="512" height="512">
<path d="M0 0 C1.01201477 0.00054382 2.02402954 0.00108765 3.06671143 0.00164795 C19.59887291 0.04238923 35.523992 0.95817716 51.75 4.375 C52.78125 4.58930664 53.8125 4.80361328 54.875 5.02441406 C101.10680927 14.94980561 143.72188765 37.60106665 177.75 70.375 C178.7390332 71.32318604 178.7390332 71.32318604 179.74804688 72.29052734 C189.23630305 81.43497479 197.9762044 90.73234009 205.75 101.375 C206.60806152 102.52605017 207.46613451 103.67709177 208.32421875 104.828125 C214.36236829 113.01930614 219.72095521 121.53304105 224.75 130.375 C225.11448242 131.00680176 225.47896484 131.63860352 225.85449219 132.28955078 C240.78473018 158.37464001 250.26385054 187.71085114 254.75 217.375 C254.92660156 218.49745117 255.10320312 219.61990234 255.28515625 220.77636719 C256.9420586 232.38947743 257.14873513 243.90679945 257.125 255.625 C257.12418427 257.14302216 257.12418427 257.14302216 257.12335205 258.69171143 C257.08261077 275.22387291 256.16682284 291.148992 252.75 307.375 C252.42854004 308.921875 252.42854004 308.921875 252.10058594 310.5 C242.17519439 356.73180927 219.52393335 399.34688765 186.75 433.375 C186.11787598 434.03435547 185.48575195 434.69371094 184.83447266 435.37304688 C175.69002521 444.86130305 166.39265991 453.6012044 155.75 461.375 C154.59894983 462.23306152 153.44790823 463.09113451 152.296875 463.94921875 C144.10569386 469.98736829 135.59195895 475.34595521 126.75 480.375 C126.11819824 480.73948242 125.48639648 481.10396484 124.83544922 481.47949219 C98.75035999 496.40973018 69.41414886 505.88885054 39.75 510.375 C38.62754883 510.55160156 37.50509766 510.72820312 36.34863281 510.91015625 C24.73552257 512.5670586 13.21820055 512.77373513 1.5 512.75 C-0.01802216 512.74918427 -0.01802216 512.74918427 -1.56671143 512.74835205 C-18.09887291 512.70761077 -34.023992 511.79182284 -50.25 508.375 C-51.796875 508.05354004 -51.796875 508.05354004 -53.375 507.72558594 C-99.60680927 497.80019439 -142.22188765 475.14893335 -176.25 442.375 C-176.90935547 441.74287598 -177.56871094 441.11075195 -178.24804688 440.45947266 C-187.73630305 431.31502521 -196.4762044 422.01765991 -204.25 411.375 C-205.10806152 410.22394983 -205.96613451 409.07290823 -206.82421875 407.921875 C-212.86236829 399.73069386 -218.22095521 391.21695895 -223.25 382.375 C-223.61448242 381.74319824 -223.97896484 381.11139648 -224.35449219 380.46044922 C-239.28473018 354.37535999 -248.76385054 325.03914886 -253.25 295.375 C-253.51490234 293.69132324 -253.51490234 293.69132324 -253.78515625 291.97363281 C-255.4420586 280.36052257 -255.64873513 268.84320055 -255.625 257.125 C-255.62445618 256.11298523 -255.62391235 255.10097046 -255.62335205 254.05828857 C-255.58261077 237.52612709 -254.66682284 221.601008 -251.25 205.375 C-251.03569336 204.34375 -250.82138672 203.3125 -250.60058594 202.25 C-240.67519439 156.01819073 -218.02393335 113.40311235 -185.25 79.375 C-184.61787598 78.71564453 -183.98575195 78.05628906 -183.33447266 77.37695312 C-174.19002521 67.88869695 -164.89265991 59.1487956 -154.25 51.375 C-153.09894983 50.51693848 -151.94790823 49.65886549 -150.796875 48.80078125 C-142.60569386 42.76263171 -134.09195895 37.40404479 -125.25 32.375 C-124.61819824 32.01051758 -123.98639648 31.64603516 -123.33544922 31.27050781 C-97.25035999 16.34026982 -67.91414886 6.86114946 -38.25 2.375 C-37.12754883 2.19839844 -36.00509766 2.02179687 -34.84863281 1.83984375 C-23.23552257 0.1829414 -11.71820055 -0.02373513 0 0 Z " fill="#0055AA" transform="translate(255.25,-0.375)"/>
<path d="M0 0 C98.95459184 0 98.95459184 0 122.125 21.75 C132.88919883 32.8986345 139.3908095 47.68134241 141 63 C141.10957031 63.91394531 141.21914062 64.82789063 141.33203125 65.76953125 C143.89527001 89.65891652 138.88715011 111.19186591 124.1640625 130.39453125 C112.51223339 144.35294694 95.7954494 152.45779294 78 155 C62.49 155 46.98 155 31 155 C31 189.32 31 223.64 31 259 C20.77 259 10.54 259 0 259 C0 173.53 0 88.06 0 0 Z " fill="#FDFDFE" transform="translate(100,127)"/>
<path d="M0 0 C7.35757652 6.18176128 7.35757652 6.18176128 10 10 C9.57042888 13.85380785 8.2162019 17.18443348 6.71484375 20.73828125 C6.26689453 21.80498047 5.81894531 22.87167969 5.35742188 23.97070312 C4.65456055 25.62489258 4.65456055 25.62489258 3.9375 27.3125 C3.22883789 28.99569336 3.22883789 28.99569336 2.50585938 30.71289062 C1.34138677 33.47704277 0.17263728 36.239304 -1 39 C-4.33790735 37.88736422 -4.97187624 37.09509961 -7.125 34.4375 C-18.43525595 21.2461204 -33.73391368 11.0685634 -51.39453125 9.5546875 C-62.31461374 8.96748744 -70.24050589 10.85527393 -79.109375 17.60546875 C-85.78643029 23.61196507 -89.70021863 32.04132132 -90.23828125 40.94140625 C-90.57176715 54.92962393 -88.33871314 65.27897863 -78.5625 75.875 C-67.814101 86.26775344 -53.06798061 92.16167939 -39.4765625 97.9296875 C-24.77086477 104.20186285 -11.34489942 111.53223163 0 123 C0.69351563 123.66 1.38703125 124.32 2.1015625 125 C14.1085613 137.23879415 18.35123449 152.56318206 18.25 169.25 C18.25773438 170.50941406 18.26546875 171.76882813 18.2734375 173.06640625 C18.25069519 184.01682684 17.2361942 193.67114902 12.375 203.5625 C12.02381104 204.29065918 11.67262207 205.01881836 11.31079102 205.76904297 C8.27697268 211.84749298 4.63894272 217.02231096 0 222 C-0.56332031 222.63035156 -1.12664062 223.26070312 -1.70703125 223.91015625 C-13.12377876 236.07554295 -29.67052616 243.70682336 -46.3828125 244.30078125 C-48.29677941 244.32030477 -50.21096634 244.32371004 -52.125 244.3125 C-53.13691406 244.30686035 -54.14882813 244.3012207 -55.19140625 244.29541016 C-82.28702988 243.85963659 -104.20313883 231.74189959 -123 213 C-123.79921875 212.36835938 -124.5984375 211.73671875 -125.421875 211.0859375 C-127 209 -127 209 -127.09765625 206.05859375 C-125.8409141 200.10853134 -122.94259653 194.56370449 -120.4375 189.0625 C-119.91736328 187.90169922 -119.39722656 186.74089844 -118.86132812 185.54492188 C-117.5820584 182.69297194 -116.2947723 179.84493693 -115 177 C-111.54373835 178.15208722 -111.15879949 178.86263699 -109.125 181.75 C-97.42271374 197.15678359 -80.77805632 211.89158437 -61 215 C-48.25246883 216.21240106 -37.41460005 212.70835612 -27.21484375 204.98828125 C-18.43378681 197.10546294 -13.86634165 185.8630818 -12.58984375 174.27734375 C-12.28541883 162.11358276 -15.39680524 152.55309157 -23 143 C-33.86316087 131.78700853 -48.85191877 125.77886717 -63.03955078 119.94458008 C-86.80804058 110.0917884 -108.11523326 95.24304467 -118.375 70.6875 C-121.40910871 62.7903105 -122.33678441 55.64639193 -122.25 47.25 C-122.24033203 46.27208496 -122.23066406 45.29416992 -122.22070312 44.28662109 C-121.93227379 26.94913378 -117.05778983 11.91534816 -105 -1 C-104.38125 -1.67160156 -103.7625 -2.34320313 -103.125 -3.03515625 C-74.91707803 -30.76226136 -28.41098048 -22.75098046 0 0 Z " fill="#FCFDFE" transform="translate(394,144)"/>
<path d="M0 0 C51.85888078 0 51.85888078 0 64 10 C64.61230469 10.47824219 65.22460938 10.95648438 65.85546875 11.44921875 C74.17860591 18.74344712 79.39384208 31.00443216 80.12841797 41.90576172 C81.02755311 58.35508476 78.01981907 72.71807127 67.3125 85.6875 C60.05880555 93.54566899 51.4545083 97.50649881 41 99 C27.47 99 13.94 99 0 99 C0 66.33 0 33.66 0 0 Z " fill="#0055AA" transform="translate(131,155)"/>
</svg>
